<?xml version="1.0" encoding="utf-8"?> <!-- Generator: IcoMoon.io --> <!DOCTYPE svg PUBLIC "-//W3C//DTD SVG 1.1//EN" "http://www.w3.org/Graphics/SVG/1.1/DTD/svg11.dtd"> <svg width="512" height="512" viewBox="0 0 512 512" xmlns="http://www.w3.org/2000/svg" xmlns:xlink="http://www.w3.org/1999/xlink" fill="#608b9f"><path d="M 256.00,0.00C 114.615,0.00,0.00,114.615,0.00,256.00s 114.615,256.00, 256.00,256.00s 256.00-114.615, 256.00-256.00S 397.385,0.00, 256.00,0.00z M 157.64,414.601L 90.615,414.601 L 90.615,211.37 l 67.025,0.00 L 157.64,414.601 z M 124.129,183.636l-0.44,0.00 c-22.493,0.00-37.04-15.614-37.04-35.127c0.00-19.931, 14.987-35.111, 37.919-35.111 c 22.928,0.00, 37.042,15.174, 37.48,35.111C 162.048,168.016, 147.498,183.636, 124.129,183.636z M 413.351,414.601l-67.026,0.00 L 346.325,305.87 c0.00-27.311-9.699-45.946-33.95-45.946c-18.522,0.00-29.558,12.567-34.393,24.705c-1.768,4.343-2.207,10.401-2.207,16.472l0.00,113.498 l-67.04,0.00 c0.00,0.00, 0.881-184.159,0.00-203.229l 67.034,0.00 l0.00,28.79 c 8.901-13.839, 24.82-33.569, 60.41-33.569c 44.108,0.00, 77.172,29.059, 77.172,91.473L 413.351,414.601 z" ></path></svg>